<mxfile host="app.diagrams.net" modified="2022-07-27T02:45:24.291Z" agent="5.0 (Macintosh; Intel Mac OS X 10_15_7) AppleWebKit/605.1.15 (KHTML, like Gecko) Version/15.3 Safari/605.1.15" etag="1hutQzNvZCcJegZEMKqv" version="20.2.1" type="github">
  <diagram id="mZDRESIJP1xzlahF299O" name="第 1 页">
    <mxGraphModel dx="1234" dy="825" grid="1" gridSize="10" guides="1" tooltips="1" connect="1" arrows="1" fold="1" page="1" pageScale="1" pageWidth="827" pageHeight="1169" math="0" shadow="0">
      <root>
        <mxCell id="0" />
        <mxCell id="1" parent="0" />
        <mxCell id="QcqQIBKkPBIKL-08ot9t-8" style="edgeStyle=orthogonalEdgeStyle;rounded=0;orthogonalLoop=1;jettySize=auto;html=1;exitX=1;exitY=0.5;exitDx=0;exitDy=0;exitPerimeter=0;entryX=0;entryY=0.5;entryDx=0;entryDy=0;entryPerimeter=0;" edge="1" parent="1" source="QcqQIBKkPBIKL-08ot9t-1" target="QcqQIBKkPBIKL-08ot9t-3">
          <mxGeometry relative="1" as="geometry" />
        </mxCell>
        <mxCell id="QcqQIBKkPBIKL-08ot9t-1" value="data &amp;nbsp;source" style="strokeWidth=2;html=1;shape=mxgraph.flowchart.database;whiteSpace=wrap;" vertex="1" parent="1">
          <mxGeometry x="30" y="370" width="70" height="70" as="geometry" />
        </mxCell>
        <mxCell id="QcqQIBKkPBIKL-08ot9t-19" style="edgeStyle=orthogonalEdgeStyle;rounded=0;orthogonalLoop=1;jettySize=auto;html=1;exitX=1;exitY=0.5;exitDx=0;exitDy=0;exitPerimeter=0;entryX=0;entryY=0.5;entryDx=0;entryDy=0;entryPerimeter=0;" edge="1" parent="1" source="QcqQIBKkPBIKL-08ot9t-3" target="QcqQIBKkPBIKL-08ot9t-16">
          <mxGeometry relative="1" as="geometry" />
        </mxCell>
        <mxCell id="QcqQIBKkPBIKL-08ot9t-3" value="convert&lt;span style=&quot;text-align: start; caret-color: rgb(51, 51, 51); color: rgb(51, 51, 51); font-family: Arial, &amp;quot;PingFang SC&amp;quot;, &amp;quot;Hiragino Sans GB&amp;quot;, STHeiti, &amp;quot;Microsoft YaHei&amp;quot;, &amp;quot;WenQuanYi Micro Hei&amp;quot;, sans-serif; font-size: 14px; background-color: rgb(249, 249, 249);&quot;&gt;(metadata model)&lt;/span&gt;" style="strokeWidth=2;html=1;shape=mxgraph.flowchart.direct_data;whiteSpace=wrap;" vertex="1" parent="1">
          <mxGeometry x="150" y="375" width="200" height="60" as="geometry" />
        </mxCell>
        <mxCell id="QcqQIBKkPBIKL-08ot9t-5" value="datahub gms store" style="strokeWidth=2;html=1;shape=mxgraph.flowchart.database;whiteSpace=wrap;" vertex="1" parent="1">
          <mxGeometry x="690" y="372.5" width="70" height="65" as="geometry" />
        </mxCell>
        <mxCell id="QcqQIBKkPBIKL-08ot9t-21" style="edgeStyle=orthogonalEdgeStyle;rounded=0;orthogonalLoop=1;jettySize=auto;html=1;exitX=1;exitY=0.5;exitDx=0;exitDy=0;entryX=0;entryY=0.5;entryDx=0;entryDy=0;entryPerimeter=0;" edge="1" parent="1" source="QcqQIBKkPBIKL-08ot9t-7" target="QcqQIBKkPBIKL-08ot9t-5">
          <mxGeometry relative="1" as="geometry" />
        </mxCell>
        <mxCell id="QcqQIBKkPBIKL-08ot9t-7" value="rest/kafka&amp;nbsp;" style="rounded=1;whiteSpace=wrap;html=1;absoluteArcSize=1;arcSize=14;strokeWidth=2;" vertex="1" parent="1">
          <mxGeometry x="545" y="355" width="100" height="100" as="geometry" />
        </mxCell>
        <mxCell id="QcqQIBKkPBIKL-08ot9t-15" value="transformers" style="text;html=1;resizable=0;autosize=1;align=center;verticalAlign=middle;points=[];fillColor=none;strokeColor=none;rounded=0;" vertex="1" parent="1">
          <mxGeometry x="390" y="340" width="90" height="30" as="geometry" />
        </mxCell>
        <mxCell id="QcqQIBKkPBIKL-08ot9t-20" style="edgeStyle=orthogonalEdgeStyle;rounded=0;orthogonalLoop=1;jettySize=auto;html=1;exitX=1;exitY=0.5;exitDx=0;exitDy=0;exitPerimeter=0;entryX=0;entryY=0.5;entryDx=0;entryDy=0;" edge="1" parent="1" source="QcqQIBKkPBIKL-08ot9t-16" target="QcqQIBKkPBIKL-08ot9t-7">
          <mxGeometry relative="1" as="geometry" />
        </mxCell>
        <mxCell id="QcqQIBKkPBIKL-08ot9t-16" value="add tags、ownership..." style="strokeWidth=2;html=1;shape=mxgraph.flowchart.direct_data;whiteSpace=wrap;" vertex="1" parent="1">
          <mxGeometry x="390" y="375" width="100" height="60" as="geometry" />
        </mxCell>
        <mxCell id="QcqQIBKkPBIKL-08ot9t-18" style="edgeStyle=orthogonalEdgeStyle;rounded=0;orthogonalLoop=1;jettySize=auto;html=1;exitX=0.5;exitY=1;exitDx=0;exitDy=0;exitPerimeter=0;" edge="1" parent="1" source="QcqQIBKkPBIKL-08ot9t-16" target="QcqQIBKkPBIKL-08ot9t-16">
          <mxGeometry relative="1" as="geometry" />
        </mxCell>
      </root>
    </mxGraphModel>
  </diagram>
</mxfile>
